HIERARCHY
ROOT Hips
{
    OFFSET 0.000000 0.000000 0.000000
    CHANNELS 6 Xposition Yposition Zposition Zrotation Xrotation Yrotation
    JOINT Spine
    {
        OFFSET -0.000000 14.517291 0.000000
        CHANNELS 3 Zrotation Xrotation Yrotation
        JOINT Spine1
        {
            OFFSET -0.000000 37.558300 0.000000
            CHANNELS 3 Zrotation Xrotation Yrotation
            JOINT Neck
            {
                OFFSET -0.000000 37.404057 3.400369
                CHANNELS 3 Zrotation Xrotation Yrotation
                JOINT Head
                {
                    OFFSET -0.000000 24.785618 -3.540803
                    CHANNELS 3 Zrotation Xrotation Yrotation
                    End Site
                    {
                        OFFSET -0.000000 35.408028 0.000000
                    }
                }
            }
            JOINT LeftShoulder
            {
                OFFSET 6.992933 33.973492 -0.192664
                CHANNELS 3 Zrotation Xrotation Yrotation
                JOINT LeftArm
                {
                    OFFSET 21.527611 0.000000 0.000000
                    CHANNELS 3 Zrotation Xrotation Yrotation
                    JOINT LeftForeArm
                    {
                        OFFSET 56.353916 0.000000 0.000000
                        CHANNELS 3 Zrotation Xrotation Yrotation
                        JOINT LeftHand
                        {
                            OFFSET 47.774071 0.000000 0.000000
                            CHANNELS 3 Zrotation Xrotation Yrotation
                            End Site
                            {
                                OFFSET 26.556021 0.000000 0.000000
                            }
                        }
                    }
                }
            }
            JOINT RightShoulder
            {
                OFFSET -7.065357 33.973492 -0.192664
                CHANNELS 3 Zrotation Xrotation Yrotation
                JOINT RightArm
                {
                    OFFSET -21.527611 0.000000 0.000000
                    CHANNELS 3 Zrotation Xrotation Yrotation
                    JOINT RightForeArm
                    {
                        OFFSET -56.353916 0.000000 0.000000
                        CHANNELS 3 Zrotation Xrotation Yrotation
                        JOINT RightHand
                        {
                            OFFSET -47.774071 0.000000 0.000000
                            CHANNELS 3 Zrotation Xrotation Yrotation
                            End Site
                            {
                                OFFSET -26.556021 0.000000 0.000000
                            }
                        }
                    }
                }
            }
        }
    }
    JOINT LeftUpLeg
    {
        OFFSET 17.704014 0.000000 0.000000
        CHANNELS 3 Zrotation Xrotation Yrotation
        JOINT LeftLeg
        {
            OFFSET -0.000000 -81.181816 0.000000
            CHANNELS 3 Zrotation Xrotation Yrotation
            JOINT LeftFoot
            {
                OFFSET -0.000000 -62.821102 0.000000
                CHANNELS 3 Zrotation Xrotation Yrotation
                JOINT LeftToeBase
                {
                    OFFSET -0.000000 -11.507608 26.556021
                    CHANNELS 3 Zrotation Xrotation Yrotation
                    End Site
                    {
                        OFFSET -0.000000 0.000000 7.081605
                    }
                }
            }
        }
    }
    JOINT RightUpLeg
    {
        OFFSET -17.704014 0.000000 0.000000
        CHANNELS 3 Zrotation Xrotation Yrotation
        JOINT RightLeg
        {
            OFFSET -0.000000 -81.181816 0.000000
            CHANNELS 3 Zrotation Xrotation Yrotation
            JOINT RightFoot
            {
                OFFSET -0.000000 -62.821102 0.000000
                CHANNELS 3 Zrotation Xrotation Yrotation
                JOINT RightToeBase
                {
                    OFFSET -0.000000 -11.507608 26.556021
                    CHANNELS 3 Zrotation Xrotation Yrotation
                    End Site
                    {
                        OFFSET -0.000000 0.000000 7.081605
                    }
                }
            }
        }
    }
}
MOTION
Frames:    6
Frame Time:    0.008333
12.689869    100.766769    -12.519370    1.362903    3.577919    -20.194565    2.375534    8.486152    11.677058    -5.228357    -3.196532    3.803751    10.501488    -5.942298    1.146783    -1.314069    4.874569    -1.058037    2.228678    2.156879    -6.947988    -41.092445    4.604028    -38.967419    -2.176455    -28.145494    -121.786217    -5.013690    -31.254009    -7.574858    -15.076638    -2.016341    7.466090    32.348850    -21.725458    76.590744    -1.402883    -19.648800    39.386604    12.030304    -14.640474    42.852612    52.602997    -61.270893    32.759167    -122.902779    60.970345    76.768929    23.134380    -26.314520    43.965836    0.000000    0.000000    0.000000    -46.587151    -20.058884    -18.655010    152.177673    61.757412    -134.452866    23.401434    -30.667379    21.210573    0.000000    0.000000    0.000000    
12.732363    100.916183    -12.484459    1.362804    3.573003    -20.173340    2.396769    8.469740    11.650863    -5.258759    -3.178822    3.795408    10.530170    -5.942194    1.142343    -1.336551    4.869443    -1.070757    2.258509    2.177183    -6.957664    -41.113220    4.588738    -39.016811    -2.184634    -28.116207    -121.773308    -4.999028    -31.237698    -7.591107    -15.040227    -2.028312    7.478768    32.250595    -21.719112    76.532707    -1.428900    -19.671267    39.453613    12.059254    -14.644194    42.838024    52.370186    -61.242180    32.603970    -122.699303    61.050316    76.626343    23.162519    -26.256149    43.945019    0.000000    0.000000    0.000000    -46.512577    -19.995724    -18.608585    151.980560    61.958000    -134.289490    23.593489    -30.617432    21.313320    0.000000    0.000000    0.000000    
12.767914    101.060417    -12.460342    1.359593    3.591975    -20.159468    2.406509    8.414347    11.637018    -5.250012    -3.129973    3.793160    10.533699    -6.007298    1.149216    -1.334069    4.934047    -1.069448    2.271861    2.171724    -6.990526    -41.143772    4.600950    -39.056763    -2.187546    -28.135429    -121.774200    -5.014518    -31.260878    -7.567297    -15.041142    -2.038862    7.464664    32.229767    -21.745857    76.529610    -1.381363    -19.682817    39.512554    12.089252    -14.661308    42.828785    52.206303    -61.217361    32.507065    -122.694656    61.080448    76.636795    23.242561    -26.230860    44.007351    0.000000    0.000000    0.000000    -46.419716    -19.972891    -18.608076    151.857452    62.152607    -134.173187    23.684845    -30.610880    21.309982    0.000000    0.000000    0.000000    
12.806080    101.214218    -12.437669    1.366088    3.600363    -20.145876    2.394794    8.372784    11.622706    -5.219831    -3.084559    3.790733    10.569104    -6.051505    1.156723    -1.413459    4.968380    -1.080500    2.272536    2.163003    -7.006041    -41.181812    4.598667    -39.106686    -2.182690    -28.110065    -121.766922    -5.027759    -31.227077    -7.582841    -15.083475    -2.068512    7.426670    32.299873    -21.764971    76.543839    -1.319508    -19.608109    39.584934    12.061325    -14.614309    42.841927    52.010002    -61.187988    32.395119    -122.468513    61.168140    76.448814    23.263796    -26.160957    44.005081    0.000000    0.000000    0.000000    -46.324329    -19.950068    -18.609468    151.746918    62.341667    -134.101578    23.824162    -30.603775    21.305487    0.000000    0.000000    0.000000    
12.850501    101.372375    -12.411321    1.368845    3.608006    -20.131842    2.398425    8.344063    11.602355    -5.217045    -3.058752    3.785078    10.613225    -6.020859    1.149949    -1.475594    4.903358    -1.100729    2.294519    2.168149    -7.019359    -41.205124    4.628052    -39.150120    -2.166312    -28.117533    -121.768799    -5.032432    -31.208904    -7.582033    -15.068270    -2.093462    7.401607    32.297947    -21.753101    76.537720    -1.319592    -19.586969    39.644314    12.069841    -14.583624    42.883476    51.812103    -61.151497    32.270977    -122.215614    61.241032    76.269318    23.293102    -26.086180    43.969006    0.000000    0.000000    0.000000    -46.225174    -19.935776    -18.601887    151.604080    62.512646    -134.051285    23.915459    -30.596394    21.280731    0.000000    0.000000    0.000000    
12.891027    101.531723    -12.376342    1.376004    3.597764    -20.118830    2.404966    8.335491    11.582150    -5.238347    -3.060904    3.777771    10.595657    -5.968284    1.134924    -1.422024    4.848345    -1.103098    2.316829    2.205000    -7.029932    -41.198345    4.666503    -39.210678    -2.140040    -28.156990    -121.755005    -5.033773    -31.206362    -7.566658    -15.029407    -2.081514    7.429571    32.203644    -21.742189    76.469727    -1.373156    -19.641953    39.708138    12.137954    -14.596437    42.866196    51.582901    -61.100830    32.130245    -121.992973    61.324135    76.081779    23.297091    -26.032169    43.960697    0.000000    0.000000    0.000000    -46.141319    -19.903439    -18.603661    151.482834    62.678085    -134.035324    23.978178    -30.593987    21.264011    0.000000    0.000000    0.000000    
